<?xml version="1.0" standalone="no"?>
<!DOCTYPE svg PUBLIC "-//W3C//DTD SVG 20010904//EN"
 "http://www.w3.org/TR/2001/REC-SVG-20010904/DTD/svg10.dtd">
<svg version="1.0" xmlns="http://www.w3.org/2000/svg"
 width="1000.000000pt" height="1000.000000pt" viewBox="0 0 1000.000000 1000.000000"
 preserveAspectRatio="xMidYMid meet">
<metadata>
Created by potrace 1.14, written by Peter Selinger 2001-2017
</metadata>
<g transform="translate(0.000000,1000.000000) scale(0.100000,-0.100000)"
fill="#000000" stroke="none">
<path d="M2210 8753 c0 -10 76 -90 168 -177 143 -137 294 -283 857 -828 l90
-88 -71 0 c-39 0 -96 -5 -127 -10 l-57 -11 -172 153 c-95 84 -193 169 -218
189 -25 20 -137 118 -250 218 -113 99 -212 180 -220 178 -8 -1 -15 -10 -15
-20 0 -9 168 -181 375 -383 206 -201 376 -369 377 -372 1 -4 -25 -23 -59 -42
-33 -19 -80 -52 -103 -72 l-43 -38 -156 138 c-86 75 -412 363 -724 639 -312
277 -575 503 -584 503 -11 0 -18 -8 -18 -18 0 -11 196 -206 498 -494 273 -262
586 -563 695 -670 l198 -194 -43 -82 c-24 -45 -46 -81 -50 -79 -8 2 -115 95
-566 489 -134 117 -251 213 -260 213 -9 0 -18 -7 -20 -15 -1 -9 167 -180 408
-415 225 -220 408 -405 406 -412 -12 -30 -16 -185 -8 -243 5 -36 9 -66 8 -67
-1 -1 -132 114 -816 717 -171 151 -319 275 -328 275 -46 0 -3 -51 260 -304
798 -766 1006 -969 1036 -1008 78 -101 238 -205 387 -250 47 -14 93 -18 210
-18 142 0 155 2 237 31 241 86 425 282 490 521 30 113 30 289 -1 397 -58 207
-194 374 -392 481 -32 17 -190 149 -378 315 -177 157 -471 417 -653 578 -183
162 -339 292 -349 292 -11 0 -19 -7 -19 -17z m1240 -1170 c66 -18 150 -53 150
-62 0 -4 -13 -20 -29 -35 l-30 -29 -100 28 c-98 27 -99 27 -106 62 -3 19 -9
41 -12 49 -7 18 30 14 127 -13z m-546 -148 c6 -27 0 -36 -57 -93 l-64 -64 -42
12 c-22 6 -41 15 -41 20 0 14 101 121 144 152 43 31 48 29 60 -27z m546 11
c164 -6 316 -181 366 -420 14 -70 14 -76 -6 -129 -40 -108 -108 -125 -238 -61
-41 20 -76 44 -80 53 -3 9 -23 38 -45 65 -21 28 -49 71 -62 97 -23 44 -29 48
-87 66 l-62 18 -25 93 -24 93 69 70 c66 67 71 70 104 63 19 -3 60 -7 90 -8z
m-394 -107 l82 -21 21 -84 c12 -46 21 -92 21 -103 0 -11 -28 -44 -67 -79 l-68
-59 -90 26 -89 27 -24 98 -25 98 64 64 c39 40 69 62 78 59 8 -3 51 -15 97 -26z
m883 -220 c12 -39 25 -94 28 -124 l6 -54 -44 11 c-24 6 -45 12 -47 14 -2 1
-13 37 -23 80 l-20 77 32 33 c18 19 36 34 39 34 3 0 16 -32 29 -71z m-984
-152 l80 -23 24 -93 24 -93 -71 -70 -70 -71 -64 17 c-134 37 -122 26 -148 127
l-23 90 69 70 c38 38 75 69 84 69 8 0 51 -11 95 -23z m-336 -108 c32 -11 34
-15 70 -154 10 -37 9 -42 -19 -69 -16 -17 -32 -27 -35 -24 -13 13 -54 148 -60
201 -8 62 -6 63 44 46z m1033 -86 c22 -4 30 -14 37 -42 6 -20 17 -63 25 -96
l15 -60 -67 -67 c-36 -38 -73 -68 -82 -68 -8 0 -51 11 -95 23 l-80 23 -26 94
-26 95 70 71 69 72 67 -19 c36 -11 78 -22 93 -26z m-442 -81 l95 -28 24 -93
24 -92 -49 -50 c-27 -28 -61 -59 -76 -70 -27 -20 -27 -20 -114 5 -48 14 -88
27 -89 28 -1 2 -12 45 -25 96 l-24 93 69 69 c38 39 70 70 70 70 0 0 43 -13 95
-28z m609 -168 c17 -4 31 -10 31 -15 0 -26 -191 -202 -204 -188 -2 2 -8 21
-14 41 -10 36 -10 37 58 102 70 68 76 70 129 60z m-623 -258 c18 -64 21 -59
-34 -52 -45 6 -177 46 -202 61 -5 3 5 18 22 34 l31 27 88 -25 c69 -19 90 -29
95 -45z"/>
<path d="M2255 5676 c-83 -20 -130 -41 -201 -91 -97 -69 -167 -173 -198 -292
-14 -55 -16 -235 -14 -1715 l3 -1653 170 0 170 0 3 56 3 56 145 30 146 29 41
-31 c23 -17 77 -55 119 -83 l77 -52 2565 0 2565 0 77 62 c42 35 85 69 95 76
14 11 32 11 103 -4 l85 -17 3 -61 3 -61 165 0 165 0 7 530 c4 292 5 1034 2
1650 -4 919 -8 1130 -20 1178 -45 186 -200 341 -384 385 -31 8 -934 13 -2940
16 -2475 5 -2904 4 -2955 -8z m275 -166 l0 -120 -60 0 c-173 0 -330 -152 -330
-320 l0 -50 -126 0 -127 0 5 118 c9 192 71 316 204 408 91 63 168 83 312 84
l122 0 0 -120z m1150 0 l0 -120 -225 2 -226 3 -4 118 -4 117 229 0 230 0 0
-120z m1140 0 l0 -120 -220 0 -220 0 0 120 0 120 220 0 220 0 0 -120z m1205 3
l-4 -118 -251 0 -251 0 -4 118 -4 117 259 0 259 0 -4 -117z m1130 0 l-4 -118
-216 -3 -215 -2 0 120 0 120 220 0 219 0 -4 -117z m1017 96 c80 -27 154 -75
207 -135 86 -98 121 -199 121 -351 l0 -103 -118 0 -118 0 -11 70 c-20 125 -81
213 -185 266 -41 21 -72 28 -135 32 l-83 5 0 118 0 119 130 0 c105 0 142 -4
192 -21z m-5361 -366 l59 -93 -167 0 -168 0 -72 79 c-40 44 -73 84 -73 90 0
16 35 19 203 17 l158 -1 60 -92z m443 25 c18 -40 36 -83 40 -95 l7 -23 -179 0
-180 0 -60 95 -61 95 200 0 200 0 33 -72z m461 50 c26 -114 35 -154 35 -161 0
-4 -86 -6 -191 -5 l-191 3 -30 70 c-16 39 -34 80 -39 93 l-9 22 210 0 c209 0
210 0 215 -22z m418 -10 c4 -18 9 -61 13 -95 l7 -63 -170 0 -170 0 -18 83
c-10 45 -20 88 -22 95 -4 9 35 12 175 12 l180 0 5 -32z m371 16 c3 -9 6 -51 6
-95 l0 -79 -149 0 -148 0 -7 63 c-4 34 -9 77 -13 95 l-5 32 155 0 c132 0 156
-2 161 -16z m356 -74 l0 -90 -145 0 -145 0 0 38 c0 20 -3 61 -6 90 l-7 52 152
0 151 0 0 -90z m360 0 l0 -90 -150 0 -150 0 0 90 0 90 150 0 150 0 0 -90z
m344 8 c-3 -46 -8 -86 -11 -90 -2 -5 -68 -8 -145 -8 l-141 0 7 61 c3 34 6 75
6 90 l0 29 146 0 145 0 -7 -82z m386 75 c0 -5 -7 -43 -15 -86 -8 -43 -15 -81
-15 -83 0 -2 -70 -4 -155 -4 l-155 0 4 23 c3 12 8 52 11 90 l7 67 159 0 c87 0
159 -3 159 -7z m394 -15 c-4 -13 -15 -52 -24 -88 l-16 -65 -163 -3 -163 -3 5
23 c3 13 9 48 12 78 4 30 8 61 10 68 3 9 47 12 175 12 l171 0 -7 -22z m426 15
c0 -4 -14 -44 -31 -90 l-32 -83 -173 0 c-189 0 -181 -3 -165 60 6 19 15 54 21
78 l11 42 184 0 c102 0 185 -3 185 -7z m490 1 c0 -3 -21 -43 -47 -90 l-47 -84
-198 0 c-152 0 -198 3 -198 13 0 11 8 32 49 140 l11 27 215 0 c118 0 215 -3
215 -6z m454 -31 c-15 -21 -43 -58 -62 -83 -19 -26 -45 -48 -60 -51 -34 -8
-362 -11 -362 -3 0 3 21 43 47 90 l47 84 209 0 209 0 -28 -37z m302 25 c3 -4
-25 -41 -62 -82 l-69 -76 -103 0 -104 0 24 33 c14 17 42 56 64 85 l39 54 102
-4 c56 -2 105 -6 109 -10z m-5256 -512 l375 -415 2061 -1 2061 0 402 445 c221
245 408 445 415 445 17 0 92 -81 100 -108 6 -18 -58 -91 -393 -453 l-400 -431
-6 -51 c-3 -29 -37 -479 -75 -1001 -78 -1057 -67 -986 -147 -986 -66 0 -86 26
-79 98 3 32 36 464 72 961 56 756 64 905 53 912 -16 10 -3968 13 -3993 3 -11
-4 -16 -19 -16 -53 0 -25 29 -440 65 -921 36 -481 65 -896 65 -922 0 -55 -23
-78 -80 -78 -77 0 -65 -84 -148 1030 l-74 1003 -380 421 c-210 232 -390 431
-401 443 -19 22 -19 22 2 57 12 19 36 47 53 61 l32 27 30 -36 c17 -20 200
-222 406 -450z m4378 296 c-1 -4 -30 -56 -62 -115 l-59 -107 -174 0 c-141 0
-173 3 -173 14 0 7 16 57 36 110 l37 96 166 3 c91 1 181 4 199 5 19 1 32 -2
30 -6z m432 2 c0 -4 -36 -56 -81 -115 l-81 -109 -164 0 c-90 0 -164 3 -164 6
0 3 27 55 61 115 l61 109 184 0 c101 0 184 -3 184 -6z m260 0 c0 -3 -44 -55
-97 -114 l-98 -108 -83 -1 -82 -1 86 115 86 115 94 0 c52 0 94 -3 94 -6z
m-5549 -158 c4 -39 7 -97 8 -129 l1 -59 -50 42 -50 42 0 122 c0 68 3 126 7
129 3 4 22 -12 42 -35 32 -37 37 -50 42 -112z m4001 137 c-5 -10 -19 -60 -32
-110 l-24 -93 -147 0 -146 0 18 103 c10 56 19 103 19 104 0 4 100 9 208 11
104 2 112 1 104 -15z m382 -50 c-14 -37 -34 -86 -45 -110 l-19 -43 -155 0
c-85 0 -155 3 -155 6 0 4 9 41 20 83 10 42 22 88 25 104 l5 27 175 0 174 0
-25 -67z m-2504 50 c1 -5 7 -52 14 -105 l12 -98 -157 0 -157 0 -17 78 c-9 42
-19 87 -22 99 -5 22 -2 22 99 26 56 1 131 4 166 5 34 1 62 -1 62 -5z m358
-100 l3 -103 -139 0 -139 0 -7 68 c-4 37 -9 84 -13 105 l-6 38 149 -3 149 -3
3 -102z m342 2 l0 -105 -140 0 -140 0 0 59 c0 32 -3 79 -6 105 l-7 46 147 0
146 0 0 -105z m350 0 l0 -105 -145 0 -145 0 0 105 0 105 145 0 145 0 0 -105z
m336 78 c-3 -16 -8 -63 -12 -105 l-6 -78 -129 0 -129 0 0 105 0 105 141 0 141
0 -6 -27z m359 -5 c-3 -18 -12 -64 -18 -103 l-13 -70 -143 -3 -144 -3 8 92 c3
51 9 98 12 105 4 11 38 14 155 14 l149 0 -6 -32z m2305 -97 l0 -118 -50 -42
-50 -42 0 121 0 120 41 45 c23 25 45 42 50 39 5 -3 9 -58 9 -123z m-5248 32
c30 -49 58 -94 62 -100 6 -10 -22 -13 -122 -13 l-130 0 -92 100 -92 100 160 0
159 0 55 -87z m414 -15 l43 -98 -157 0 -157 0 -26 43 c-14 23 -42 68 -63 100
l-37 57 177 -2 178 -3 42 -97z m408 24 c9 -43 19 -88 23 -100 l5 -22 -164 0
-165 0 -37 88 c-21 48 -40 93 -43 100 -4 9 36 12 179 12 l185 0 17 -78z
m-1277 -239 l74 -81 -3 -93 -3 -93 -117 104 -116 105 -1 120 0 120 46 -50 c25
-27 79 -87 120 -132z m5559 65 l-7 -113 -102 -98 c-144 -138 -137 -137 -137
-25 l0 93 117 128 c64 70 121 127 126 127 5 0 7 -44 3 -112z m-1088 -6 c-1 -4
-32 -60 -68 -125 l-65 -117 -142 0 c-79 0 -143 3 -143 8 0 4 19 57 41 119 l42
112 126 4 c69 1 146 4 169 5 24 1 42 -1 40 -6z m382 0 c0 -8 -41 -63 -134
-180 l-49 -62 -129 0 c-70 0 -128 3 -128 8 0 4 21 43 46 87 25 44 53 97 61
118 l15 37 159 0 c87 0 159 -4 159 -8z m191 -29 c-16 -21 -68 -78 -115 -126
-85 -87 -87 -88 -131 -85 l-44 3 40 59 c22 33 61 88 87 123 l46 63 74 0 74 0
-31 -37z m-4403 -91 l72 -117 -87 -3 -88 -3 -68 73 c-38 40 -86 94 -109 121
l-40 47 124 0 123 -1 73 -117z m349 -2 l51 -120 -126 0 -127 0 -70 112 c-38
61 -71 115 -73 120 -2 4 63 8 145 8 l148 0 52 -120z m352 13 c13 -60 26 -114
28 -120 4 -10 -26 -13 -129 -13 l-135 0 -15 38 c-9 20 -32 74 -51 120 l-36 82
157 0 157 0 24 -107z m358 2 c6 -55 12 -108 12 -117 1 -16 -12 -18 -139 -18
-137 0 -140 0 -145 23 -3 12 -14 60 -25 107 -11 47 -20 91 -20 98 0 10 34 12
152 10 l153 -3 12 -100z m323 16 c0 -49 3 -103 6 -120 l7 -31 -132 0 c-72 0
-131 3 -131 8 0 13 -20 175 -25 205 l-4 27 139 0 140 0 0 -89z m330 -31 l0
-120 -135 0 -135 0 0 104 c0 57 -3 111 -6 120 -5 14 10 16 135 16 l141 0 0
-120z m346 89 c-3 -17 -6 -71 -6 -120 l0 -89 -140 0 -140 0 0 120 0 120 146 0
147 0 -7 -31z m310 -11 c-3 -24 -9 -78 -12 -120 l-7 -78 -118 0 -119 0 0 120
0 120 131 0 131 0 -6 -42z m344 30 c0 -11 -26 -161 -36 -205 -4 -22 -8 -23
-136 -23 l-131 0 7 88 c4 48 9 102 12 120 l6 32 139 0 c100 0 139 -3 139 -12z
m347 0 c-2 -7 -17 -61 -32 -120 l-28 -108 -134 0 c-123 0 -134 1 -129 18 2 9
12 63 22 120 l17 102 145 0 c111 0 143 -3 139 -12z m347 -55 c-14 -38 -35 -92
-46 -120 l-19 -53 -140 0 c-76 0 -139 2 -139 5 0 3 9 37 19 77 11 40 25 92 31
116 l11 42 154 0 154 0 -25 -67z m1656 -167 l0 -184 -50 -31 -50 -31 0 174 0
174 46 41 c26 23 48 41 50 41 2 0 4 -83 4 -184z m-5920 -78 c0 -93 -3 -168 -6
-168 -3 0 -25 14 -50 30 l-44 31 0 180 0 181 50 -44 49 -43 1 -167z m5770 -35
l-1 -168 -113 -77 c-63 -43 -117 -78 -120 -78 -3 0 -6 60 -6 134 l0 134 118
111 c64 61 118 111 120 111 1 0 2 -75 2 -167z m-295 31 l-6 -61 -84 -76 c-46
-43 -86 -77 -89 -77 -3 0 -2 33 1 73 6 70 7 74 57 127 29 30 67 75 86 99 l35
43 3 -33 c2 -19 1 -61 -3 -95z m-5284 -6 l96 -88 7 -136 c4 -75 5 -138 3 -140
-1 -2 -55 33 -120 77 l-117 80 0 161 c0 151 1 160 18 147 9 -8 60 -53 113
-101z m304 -44 c19 -23 26 -48 31 -104 l7 -74 -25 20 c-14 11 -55 47 -92 81
l-66 60 0 89 1 89 60 -65 c33 -36 71 -79 84 -96z m503 26 l23 -40 -73 0 c-73
0 -73 0 -106 40 l-33 40 83 0 83 0 23 -40z m305 0 l15 -40 -111 0 -112 0 -22
35 c-13 19 -23 37 -23 40 0 3 53 5 118 5 l119 0 16 -40z m301 28 c3 -7 7 -25
10 -40 l6 -28 -117 0 -118 0 -17 40 -17 40 125 0 c91 0 126 -3 128 -12z m336
3 c0 -5 3 -23 6 -40 l7 -31 -136 0 -135 0 -10 40 -10 40 139 0 c76 0 139 -4
139 -9z m310 -31 l0 -40 -119 0 c-115 0 -119 1 -125 23 -15 58 -17 57 119 57
l125 0 0 -40z m320 0 l0 -40 -130 0 -130 0 0 40 0 40 130 0 130 0 0 -40z m340
0 l0 -40 -140 0 -140 0 0 40 0 40 140 0 140 0 0 -40z m290 23 c0 -10 -3 -28
-6 -40 -6 -22 -11 -23 -120 -23 -123 0 -123 0 -108 58 6 21 11 22 120 22 102
0 114 -2 114 -17z m320 8 c0 -5 -3 -23 -6 -40 l-6 -31 -129 0 c-140 0 -138 -1
-123 58 6 21 10 22 135 22 71 0 129 -4 129 -9z m315 -13 c-4 -13 -9 -31 -11
-40 -5 -16 -20 -18 -130 -18 -135 0 -133 -1 -118 58 6 21 10 22 136 22 l129 0
-6 -22z m335 13 c0 -4 -5 -22 -11 -40 l-11 -31 -133 0 -133 0 10 40 10 40 134
0 c74 0 134 -4 134 -9z m329 -31 l-23 -40 -133 0 -133 0 15 36 c8 20 15 38 15
40 0 2 63 4 141 4 l140 0 -22 -40z m335 28 c-41 -69 -38 -68 -166 -68 -65 0
-118 3 -118 6 0 4 9 22 21 40 l21 34 124 0 c98 0 124 -3 118 -12z m166 7 c0
-2 -14 -20 -31 -40 -24 -27 -39 -35 -65 -35 -19 0 -34 3 -34 7 0 3 11 21 26
40 21 28 31 33 65 33 21 0 39 -2 39 -5z m-4320 -319 l0 -59 -44 39 c-42 37
-44 42 -45 96 -1 31 -4 65 -8 75 -4 10 16 -7 45 -37 49 -53 51 -57 52 -114z
m4554 91 c-6 -64 -8 -67 -57 -109 -46 -38 -50 -40 -44 -18 4 14 7 41 7 60 0
28 10 47 46 88 26 29 48 51 51 49 2 -3 1 -34 -3 -70z m236 -57 l0 -129 -96
-67 c-52 -36 -97 -65 -98 -63 -2 2 -1 53 3 113 l7 109 90 83 c49 46 90 83 92
84 1 0 2 -58 2 -130z m-4984 -1 l51 -47 7 -112 c4 -62 3 -110 -1 -109 -5 2
-47 31 -95 63 -99 69 -98 66 -98 223 l0 105 43 -37 c23 -21 65 -60 93 -86z
m5426 -105 l-3 -210 -44 -22 -45 -22 0 198 0 197 48 36 c26 20 47 35 47 35 0
-1 -1 -96 -3 -212z m-6064 -19 l2 -205 -125 0 -125 0 0 203 c0 112 3 207 7
210 3 4 58 5 122 2 l116 -5 3 -205z m108 185 l44 -31 0 -194 c0 -128 -4 -195
-10 -195 -6 0 -29 9 -50 20 l-40 20 0 205 c0 113 3 205 6 205 3 0 25 -14 50
-30z m6254 -180 l0 -210 -120 0 -120 0 0 208 0 207 120 2 120 2 0 -209z m-450
-78 l0 -189 -102 -46 c-57 -25 -111 -49 -120 -52 -17 -7 -18 5 -18 153 l0 161
113 80 c61 43 115 80 120 80 4 1 7 -84 7 -187z m-5571 98 l110 -75 1 -163 c0
-90 -4 -162 -9 -160 -4 2 -58 25 -120 53 l-111 50 0 188 c0 109 4 187 9 185 5
-1 59 -37 120 -78z m871 26 c0 -7 3 -28 6 -45 l7 -31 -57 0 c-41 0 -56 4 -56
14 0 7 -3 28 -6 45 l-6 31 56 0 c41 0 56 -4 56 -14z m298 -34 l3 -43 -118 3
-118 3 -3 43 -3 43 118 -3 118 -3 3 -43z m282 3 l0 -45 -109 0 -108 0 -7 31
c-12 61 -16 59 109 59 l115 0 0 -45z m320 0 l0 -45 -130 0 -130 0 0 45 0 45
130 0 130 0 0 -45z m300 0 l0 -45 -120 0 -120 0 0 45 0 45 120 0 120 0 0 -45z
m310 0 l0 -45 -125 0 -125 0 0 45 0 45 125 0 125 0 0 -45z m310 0 l0 -45 -125
0 -125 0 0 45 0 45 125 0 125 0 0 -45z m300 0 l0 -45 -125 0 -125 0 0 45 0 45
125 0 125 0 0 -45z m306 29 c-3 -9 -6 -29 -6 -45 l0 -29 -120 0 -120 0 0 45 0
45 126 0 c111 0 125 -2 120 -16z m304 -29 l0 -45 -125 0 -125 0 0 45 0 45 125
0 125 0 0 -45z m310 0 l0 -45 -125 0 -125 0 0 45 0 45 125 0 125 0 0 -45z
m320 0 l0 -45 -136 0 c-120 0 -135 2 -130 16 3 9 6 29 6 45 l0 29 130 0 130 0
0 -45z m290 0 l0 -45 -118 0 -117 0 3 45 4 45 114 0 114 0 0 -45z m150 0 l0
-45 -45 0 -45 0 0 45 0 45 45 0 45 0 0 -45z m355 -143 c-6 -60 -8 -63 -52 -93
-24 -17 -46 -29 -48 -27 -1 1 0 44 4 95 l6 91 45 40 45 40 3 -42 c2 -22 1 -69
-3 -104z m-4523 27 c3 -24 7 -70 7 -101 l1 -58 -45 32 c-34 24 -45 38 -45 58
0 15 -3 63 -7 106 l-6 79 44 -36 c36 -30 45 -45 51 -80z m382 -40 c3 -34 6
-84 6 -110 l0 -49 -49 0 -50 0 -5 53 c-3 28 -7 78 -10 110 l-5 57 53 0 53 0 7
-61z m290 9 c3 -29 6 -79 6 -110 l0 -58 -114 0 -113 0 -6 83 c-4 45 -7 94 -7
110 l0 27 114 0 113 0 7 -52z m280 36 c3 -9 6 -58 6 -110 l0 -94 -110 0 -110
0 0 33 c0 19 -3 68 -6 110 l-7 77 110 0 c92 0 112 -3 117 -16z m316 -26 c0
-24 3 -73 7 -110 l6 -68 -132 0 -131 0 0 49 c0 26 -3 76 -6 110 l-7 61 132 0
131 0 0 -42z m300 -68 l0 -110 -120 0 -120 0 0 110 0 110 120 0 120 0 0 -110z
m310 0 l0 -110 -125 0 -125 0 0 110 0 110 125 0 125 0 0 -110z m310 0 l0 -110
-125 0 -125 0 0 110 0 110 125 0 125 0 0 -110z m300 0 l0 -110 -125 0 -125 0
0 110 0 110 125 0 125 0 0 -110z m300 0 l0 -110 -120 0 -120 0 0 110 0 110
120 0 120 0 0 -110z m310 0 l0 -110 -125 0 -125 0 0 110 0 110 125 0 125 0 0
-110z m300 0 l0 -110 -120 0 -120 0 0 110 0 110 120 0 120 0 0 -110z m320 38
c0 -40 -3 -90 -6 -110 l-7 -38 -123 0 -124 0 0 110 0 110 130 0 130 0 0 -72z
m290 15 c0 -32 -3 -82 -6 -110 l-7 -53 -115 0 -115 0 6 68 c4 37 7 86 7 110
l0 42 115 0 115 0 0 -57z m150 24 c0 -19 -3 -68 -6 -110 l-7 -77 -45 0 -45 0
7 77 c3 42 6 91 6 110 0 33 1 33 45 33 44 0 45 0 45 -33z m612 -129 c-2 -84
-7 -156 -11 -160 -3 -4 -50 -27 -104 -52 l-98 -45 6 87 c3 48 8 111 11 139 l5
53 92 64 c51 35 95 64 98 65 3 1 4 -68 1 -151z m-4898 -122 c4 -71 4 -131 2
-134 -3 -3 -50 15 -103 40 l-98 45 -3 157 -3 157 99 -68 99 -68 7 -129z m-591
62 c12 -6 25 -16 29 -22 4 -6 8 -87 8 -180 0 -140 -2 -167 -14 -163 -8 3 -32
11 -55 18 l-41 12 0 183 0 184 26 -10 c14 -6 35 -15 47 -22z m5230 -25 c-2
-32 -6 -90 -9 -129 l-6 -72 -50 -21 -51 -21 6 67 c4 38 7 89 7 115 0 45 2 50
48 83 26 19 50 35 53 35 3 0 4 -26 2 -57z m707 -122 l0 -179 -45 -15 -45 -16
0 179 0 178 38 15 c20 9 40 16 45 16 4 1 7 -80 7 -178z m-5196 42 c4 -38 9
-91 12 -120 l5 -52 -49 21 -49 21 -7 90 c-3 50 -6 108 -6 129 l0 39 44 -30
c44 -30 45 -32 50 -98z m5046 -97 l0 -174 -122 -39 -123 -39 -3 66 c-1 36 1
107 5 158 l8 93 115 53 c63 30 116 55 118 55 1 1 2 -77 2 -173z m-5450 -107
l0 -158 -119 40 -118 40 -7 67 c-3 37 -6 115 -6 174 l0 106 125 -56 125 -56 0
-157z m780 214 c0 -21 3 -75 7 -120 l6 -83 -51 0 -50 0 -6 88 c-4 48 -8 102
-11 120 l-4 32 55 0 54 0 0 -37z m290 -30 c0 -38 3 -92 6 -120 l7 -53 -115 0
-115 0 -7 61 c-3 34 -6 88 -6 120 l0 59 115 0 115 0 0 -67z m278 -55 l3 -118
-105 0 -105 0 -5 33 c-3 17 -7 72 -8 120 l-3 88 110 -3 110 -3 3 -117z m312 2
l0 -120 -125 0 -125 0 0 74 c0 40 -3 94 -6 120 l-7 46 132 0 131 0 0 -120z
m294 43 c3 -42 6 -96 6 -120 l0 -43 -120 0 -120 0 0 120 0 120 114 0 113 0 7
-77z m306 -43 l0 -120 -125 0 -125 0 0 120 0 120 125 0 125 0 0 -120z m310 0
l0 -120 -125 0 -125 0 0 120 0 120 125 0 125 0 0 -120z m300 0 l0 -120 -125 0
-125 0 0 120 0 120 125 0 125 0 0 -120z m300 0 l0 -120 -120 0 -120 0 0 120 0
120 120 0 120 0 0 -120z m307 53 c-4 -38 -7 -92 -7 -120 l0 -53 -126 0 -126 0
6 31 c3 17 6 71 6 120 l0 89 126 0 127 0 -6 -67z m299 45 c-3 -13 -6 -67 -6
-120 l0 -98 -120 0 -120 0 0 120 0 120 126 0 c126 0 126 0 120 -22z m311 -45
c-4 -38 -7 -92 -7 -120 l0 -53 -125 0 -125 0 0 120 0 120 131 0 132 0 -6 -67z
m287 -30 c-8 -157 4 -143 -124 -143 l-110 0 0 83 c0 45 3 99 6 120 l7 37 113
0 112 0 -4 -97z m143 15 c-4 -46 -7 -100 -7 -120 l0 -38 -44 0 -44 0 4 98 c8
143 7 142 56 142 l41 0 -6 -82z m628 -245 l-7 -92 -96 -32 c-54 -18 -103 -34
-110 -37 -11 -4 -13 16 -8 109 11 187 1 169 119 222 l102 46 3 -62 c2 -34 1
-103 -3 -154z m-4982 158 l105 -49 7 -136 c4 -75 6 -138 4 -140 -2 -2 -52 12
-111 31 l-108 34 0 117 c0 64 -3 134 -6 155 -4 20 -4 37 -1 37 3 0 52 -22 110
-49z m4712 -103 c-3 -24 -7 -87 -11 -140 l-6 -97 -46 -15 c-25 -9 -48 -16 -51
-16 -4 0 -3 39 1 88 3 48 7 106 7 129 1 40 3 43 54 67 28 13 53 25 54 25 2 1
1 -18 -2 -41z m-4483 0 c17 -6 29 -19 32 -36 7 -39 19 -242 14 -242 -2 0 -25
7 -51 16 -44 15 -47 18 -47 52 0 21 -3 82 -7 136 -6 95 -5 99 13 92 10 -5 31
-12 46 -18z m408 -95 c0 -38 3 -92 6 -120 l7 -53 -50 0 -50 0 -6 83 c-4 45 -7
99 -7 120 l0 37 50 0 50 0 0 -67z m284 15 c3 -29 6 -83 6 -120 l0 -68 -109 0
-110 0 -5 43 c-3 23 -7 77 -9 120 l-4 77 112 0 112 0 7 -52z m276 -68 l0 -120
-105 0 -105 0 0 38 c0 20 -3 74 -7 120 l-6 82 112 0 111 0 0 -120z m304 83 c3
-21 6 -75 6 -120 l0 -83 -125 0 -125 0 0 98 c0 53 -3 107 -6 120 -6 22 -6 22
119 22 l124 0 7 -37z m296 -83 l0 -120 -114 0 -113 0 -7 61 c-3 34 -6 88 -6
120 l0 59 120 0 120 0 0 -120z m300 0 l0 -120 -120 0 -120 0 0 120 0 120 120
0 120 0 0 -120z m310 0 l0 -120 -125 0 -125 0 0 120 0 120 125 0 125 0 0 -120z
m300 0 l0 -120 -125 0 -125 0 0 120 0 120 125 0 125 0 0 -120z m297 53 c-4
-38 -7 -92 -7 -120 l0 -53 -115 0 -115 0 0 120 0 120 121 0 122 0 -6 -67z
m303 -53 l0 -120 -125 0 -125 0 0 120 0 120 125 0 125 0 0 -120z m296 89 c-3
-17 -6 -71 -6 -120 l0 -89 -115 0 -115 0 0 120 0 120 121 0 122 0 -7 -31z
m304 -43 c0 -40 -3 -94 -6 -120 l-7 -46 -118 0 -119 0 0 120 0 120 125 0 125
0 0 -74z m287 7 c-4 -38 -7 -92 -7 -120 l0 -53 -116 0 -117 0 7 77 c3 42 6 96
6 120 l0 43 116 0 117 0 -6 -67z m139 -20 c-11 -153 -11 -153 -54 -153 l-37 0
6 102 c4 57 7 111 8 121 1 13 10 17 42 17 l41 0 -6 -87z m1102 -338 c-2 -1
-24 -6 -50 -9 l-48 -7 0 189 0 188 48 15 47 15 3 -194 c1 -107 1 -196 0 -197z
m-5939 364 l41 -12 0 -190 0 -189 -22 6 c-13 3 -38 6 -55 6 l-33 0 0 201 c0
168 2 200 14 196 8 -3 32 -11 55 -18z m5786 -214 l-7 -172 -121 -16 c-66 -9
-121 -16 -121 -14 -1 1 0 73 2 159 l3 158 122 39 c69 22 124 34 126 29 2 -6 0
-88 -4 -183z m-5441 13 c3 -50 6 -122 6 -160 l0 -70 -27 6 c-16 3 -72 10 -125
17 l-98 11 0 183 0 184 119 -40 118 -40 7 -91z m5136 -71 l0 -154 -120 -14
-121 -15 7 125 c4 70 9 128 11 131 3 4 166 62 221 79 1 1 2 -68 2 -152z
m-4853 69 c1 -1 5 -60 9 -132 l7 -131 -114 15 c-63 8 -115 15 -117 17 -2 2 -6
71 -9 153 l-6 150 114 -35 c63 -20 115 -36 116 -37z m-749 -161 l2 -175 -125
0 -125 0 0 173 c0 96 3 177 7 180 3 4 58 5 122 2 l116 -5 3 -175z m6362 5 l0
-180 -120 0 -120 0 0 178 0 177 120 2 120 2 0 -179z m-1052 23 c-5 -69 -9
-127 -10 -128 -2 -1 -26 -5 -55 -8 l-51 -6 5 82 c9 142 11 148 68 168 28 10
50 18 50 18 0 1 -3 -56 -7 -126z m-4425 88 c21 -8 25 -18 30 -78 4 -37 7 -89
7 -114 l0 -47 -47 6 c-27 2 -49 5 -49 6 -1 0 -5 57 -9 125 l-7 124 25 -7 c15
-3 37 -10 50 -15z m391 -23 c3 -24 7 -80 10 -125 l4 -83 -49 0 -49 0 0 43 c0
23 -3 79 -7 125 l-6 82 46 0 46 0 5 -42z m286 -22 c0 -34 3 -91 6 -125 l7 -61
-112 0 c-81 0 -113 3 -115 13 -3 6 -7 63 -10 125 l-6 112 115 0 115 0 0 -64z
m270 -30 c0 -51 3 -108 6 -125 l7 -31 -107 0 c-58 0 -106 3 -107 8 0 4 -4 60
-7 125 l-7 117 108 0 107 0 0 -94z m300 -31 l0 -125 -120 0 -120 0 0 125 0
125 120 0 120 0 0 -125z m290 0 l0 -125 -115 0 -115 0 0 125 0 125 115 0 115
0 0 -125z m300 0 l0 -125 -120 0 -120 0 0 125 0 125 120 0 120 0 0 -125z m310
0 l0 -125 -125 0 -125 0 0 125 0 125 125 0 125 0 0 -125z m300 0 l0 -125 -125
0 -125 0 0 125 0 125 125 0 125 0 0 -125z m290 0 l0 -125 -115 0 -115 0 0 125
0 125 115 0 115 0 0 -125z m306 33 c-3 -50 -6 -106 -6 -125 l0 -33 -120 0
-120 0 0 125 0 125 126 0 127 0 -7 -92z m290 40 c-3 -29 -6 -86 -6 -125 l0
-73 -115 0 -115 0 0 125 0 125 121 0 122 0 -7 -52z m301 -15 c-4 -38 -7 -94
-7 -125 l0 -58 -120 0 -120 0 0 125 0 125 126 0 127 0 -6 -67z m283 19 c0 -27
-3 -83 -6 -125 l-7 -77 -108 0 -109 0 0 88 c0 48 3 104 6 125 l7 37 108 0 109
0 0 -48z m135 -19 c-3 -38 -8 -94 -11 -125 l-6 -58 -34 0 c-39 0 -39 -2 -28
158 l7 92 39 0 40 0 -7 -67z m1125 -328 l0 -195 -50 0 -50 0 0 189 c0 210 -4
197 68 200 l32 1 0 -195z m-5906 174 c2 -2 6 -88 9 -191 l7 -188 -60 0 -60 0
0 196 0 197 50 -5 c28 -3 52 -7 54 -9z m5746 -185 l0 -187 -61 7 c-34 3 -91 6
-125 6 l-64 0 0 165 0 164 33 5 c83 14 155 24 185 25 l32 1 0 -186z m-5536
161 c54 -7 99 -15 101 -17 2 -2 5 -76 7 -165 l4 -163 -52 0 c-28 0 -85 -3
-127 -6 l-77 -7 0 187 0 186 23 0 c12 0 66 -7 121 -15z m5232 -31 c-3 -9 -6
-81 -6 -160 l0 -144 -126 0 -126 0 7 143 c4 78 9 144 11 146 6 6 160 28 208
30 31 1 37 -2 32 -15z m-4924 -8 c48 -6 89 -14 92 -17 2 -2 8 -68 13 -147 l8
-142 -127 0 -128 0 0 160 0 160 28 -1 c15 0 66 -6 114 -13z m4623 -43 c-2 -21
-7 -86 -11 -145 l-6 -108 -49 0 c-33 0 -51 5 -55 14 -7 18 11 244 20 253 4 4
28 10 54 14 26 3 48 7 50 8 1 0 0 -16 -3 -36z m-4378 9 c9 -6 33 -201 33 -268
0 -2 -25 -4 -55 -4 l-55 0 0 43 c0 23 -3 86 -7 140 l-6 97 39 0 c21 0 44 -4
51 -8z m377 -44 c3 -29 6 -81 6 -115 l0 -63 -40 0 c-46 0 -46 -2 -55 138 l-6
92 44 0 44 0 7 -52z m280 15 c3 -21 6 -73 6 -115 l0 -78 -110 0 -110 0 0 38
c0 22 -3 73 -6 115 l-7 77 110 0 110 0 7 -37z m266 -25 c0 -35 3 -87 6 -115
l7 -53 -107 0 -106 0 0 48 c0 26 -3 77 -7 115 l-6 67 107 0 106 0 0 -62z m300
-53 l0 -116 -117 3 -118 3 -3 113 -3 112 121 0 120 0 0 -115z m290 0 l0 -115
-115 0 -115 0 0 69 c0 37 -3 89 -6 115 l-7 46 122 0 121 0 0 -115z m290 0 l0
-115 -114 0 -113 0 -7 38 c-3 20 -6 72 -6 115 l0 77 120 0 120 0 0 -115z m310
0 l0 -115 -125 0 -125 0 0 115 0 115 125 0 125 0 0 -115z m300 0 l0 -115 -125
0 -125 0 0 115 0 115 125 0 125 0 0 -115z m290 0 l0 -115 -115 0 -115 0 0 115
0 115 115 0 115 0 0 -115z m300 0 l0 -115 -125 0 -125 0 0 48 c0 26 3 77 7
115 l6 67 118 0 119 0 0 -115z m286 63 c-3 -29 -6 -81 -6 -115 l0 -63 -110 0
-110 0 0 115 0 115 116 0 117 0 -7 -52z m294 -17 c0 -37 -3 -89 -6 -115 l-7
-46 -113 0 -114 0 0 115 0 115 120 0 120 0 0 -69z m279 -33 c-4 -57 -7 -109
-8 -115 -1 -10 -31 -13 -112 -13 l-112 0 7 77 c3 42 6 93 6 115 l0 38 113 0
112 0 -6 -102z m136 75 c-2 -16 -7 -67 -11 -115 l-6 -88 -35 0 -36 0 7 61 c3
34 6 86 6 115 l0 54 40 0 c38 0 39 -1 35 -27z m-3602 -345 c4 -46 7 -102 7
-125 l0 -43 -39 0 -39 0 -6 68 c-4 37 -9 93 -12 125 l-5 57 44 0 44 0 6 -82z
m277 34 c0 -27 3 -83 6 -125 l7 -77 -110 0 -110 0 -6 83 c-4 45 -7 101 -7 125
l0 42 110 0 110 0 0 -48z m260 6 c0 -24 3 -80 7 -125 l6 -83 -100 0 -100 0 -7
46 c-3 26 -6 82 -6 125 l0 79 100 0 100 0 0 -42z m290 -6 c0 -27 3 -83 6 -125
l7 -77 -115 0 -115 0 -7 46 c-3 26 -6 82 -6 125 l0 79 115 0 115 0 0 -48z
m290 -77 l0 -125 -115 0 -115 0 0 125 0 125 115 0 115 0 0 -125z m290 0 l0
-125 -115 0 -115 0 0 125 0 125 115 0 115 0 0 -125z m310 0 l0 -125 -125 0
-125 0 0 125 0 125 125 0 125 0 0 -125z m300 0 l0 -125 -125 0 -125 0 0 125 0
125 125 0 125 0 0 -125z m280 0 l0 -125 -110 0 -110 0 0 125 0 125 110 0 110
0 0 -125z m310 92 c0 -19 -3 -75 -6 -125 l-7 -92 -118 0 -119 0 0 125 0 125
125 0 125 0 0 -33z m277 -34 c-4 -38 -7 -94 -7 -125 l0 -58 -110 0 -110 0 0
125 0 125 116 0 117 0 -6 -67z m289 6 c-3 -34 -6 -91 -6 -125 l0 -64 -115 0
-115 0 0 103 c0 157 -9 147 128 147 l115 0 -7 -61z m278 -51 c-3 -62 -7 -119
-10 -125 -2 -9 -34 -13 -111 -13 l-108 0 7 122 c3 68 7 124 7 126 1 1 50 2
111 2 l110 0 -6 -112z m126 70 c0 -24 -3 -80 -7 -125 l-6 -83 -33 0 -32 0 4
83 c9 158 11 167 45 167 28 0 29 -2 29 -42z m384 -25 c-2 -21 -6 -81 -10 -134
l-6 -96 -48 11 c-27 6 -51 14 -55 18 -4 4 -4 59 0 122 l7 116 58 0 58 0 -4
-37z m-4320 0 c2 -16 8 -71 11 -124 l7 -95 -56 -10 -56 -11 0 36 c0 20 -3 80
-7 134 l-6 97 51 0 c47 0 51 -2 56 -27z m4632 -130 c-4 -87 -9 -160 -11 -162
-4 -4 -246 47 -253 53 -2 3 -1 63 3 135 l8 131 130 0 130 0 -7 -157z m314 -39
c0 -181 -1 -195 -17 -190 -10 3 -69 15 -130 27 l-113 22 0 122 c0 67 3 143 6
169 l7 46 123 0 124 0 0 -196z m164 -21 c3 -114 5 -208 3 -210 -2 -1 -29 2
-60 8 l-57 12 0 67 c0 37 3 127 6 201 l7 134 47 -3 47 -4 7 -205z m-5584 39
l0 -169 -102 -22 c-57 -13 -114 -25 -128 -28 l-25 -5 0 196 -1 196 128 0 128
0 0 -168z m314 71 c4 -54 8 -115 10 -135 2 -21 3 -38 1 -38 -1 0 -57 -11 -125
-25 -68 -14 -126 -25 -131 -25 -4 0 -9 72 -11 160 l-3 160 127 0 126 0 6 -97z
m-624 -103 c0 -104 0 -193 0 -197 0 -9 -23 -16 -82 -27 l-38 -7 0 211 0 210
60 0 60 0 0 -190z m-170 -255 l0 -95 -125 0 -125 0 0 95 0 95 125 0 125 0 0
-95z m6360 0 l0 -95 -120 0 -120 0 0 95 0 95 120 0 120 0 0 -95z"/>
</g>
</svg>
